<svg xmlns="http://www.w3.org/2000/svg" style="isolation:isolate" viewBox="0 0 1080 540" width="1080" height="540"><defs><clipPath id="a"><path d="M0 0h1080v540H0z"/></clipPath></defs><g clip-path="url(#a)"><path d="M0 0h1080v540H0z"/><path d="M123.5 374.5c0-47.741 38.759-86.5 86.5-86.5s86.5 38.759 86.5 86.5S257.741 461 210 461s-86.5-38.759-86.5-86.5z" fill="#06D6A0"/><text transform="translate(103 383.838)" font-family="Rammetto One" font-weight="400" font-size="36">Websites</text><path d="M343 152.5c0-47.741 38.759-86.5 86.5-86.5s86.5 38.759 86.5 86.5-38.759 86.5-86.5 86.5-86.5-38.759-86.5-86.5z" fill="#FFD166"/><text transform="translate(311 161.838)" font-family="Rammetto One" font-weight="400" font-size="36">Web Apps</text><path d="M559 391.5c0-47.741 38.759-86.5 86.5-86.5s86.5 38.759 86.5 86.5-38.759 86.5-86.5 86.5-86.5-38.759-86.5-86.5z" fill="#EF476F"/><text transform="translate(602.216 403.937)" font-family="Rammetto One" font-weight="400" font-size="36">SEO</text><path d="M743 166.5c0-47.741 38.759-86.5 86.5-86.5s86.5 38.759 86.5 86.5-38.759 86.5-86.5 86.5-86.5-38.759-86.5-86.5z" fill="#118AB2"/><text transform="translate(687 175.838)" font-family="Rammetto One" font-weight="400" font-size="36">Mobile Apps</text></g></svg>