<svg xmlns="http://www.w3.org/2000/svg" style="isolation:isolate" viewBox="0 0 599.213 600" width="599.213" height="600"><path d="M0 0h599.213v600H0V0zm83.102 223.216q-10.513 0-20.948-2.788-10.434-2.788-17.921-8.682-15.93-12.426-15.93-36.799V162.84l44.206-6.053v12.266q0 11.071 6.611 14.257 3.982 1.992 8.124-.159 2.071-1.115 3.664-3.186 3.505-4.46 3.505-11.39V92.907h50.737v61.49q0 48.03-29.47 62.526-12.585 6.213-32.578 6.293M231.173 149.3q-1.593-.797-4.102-.797-2.509 0-5.535 1.474-3.027 1.473-5.974 4.022-6.213 5.416-10.434 13.142-4.222 7.726-4.222 14.218t4.938 8.722q1.753.796 4.302.796 2.548 0 5.336-1.553 2.788-1.553 5.576-4.182 5.814-5.495 10.195-13.341 4.381-7.846 4.381-14.058 0-6.213-4.461-8.443m-15.452 73.756q-22.78 0-39.268-14.417-17.603-15.293-17.603-38.511 0-23.218 16.488-37.993 16.488-14.775 40.702-14.775t40.701 14.456q16.488 14.457 16.568 38.671.079 15.532-7.886 27.479-7.965 11.948-21.267 18.479-13.301 6.532-28.435 6.611m97.851-147.832q11.669 0 17.324 4.899 5.656 4.898 5.616 12.465-.04 7.567-7.249 13.939-7.208 6.372-19.235 6.372-16.886 0-21.028-10.195-1.195-2.868-1.195-6.372 0-3.505 1.673-7.328 1.673-3.823 5.018-6.85 7.407-6.93 19.076-6.93m21.546 45.879v99.006H289v-99.006h46.118m72.96 26.922q-6.372 0-6.372 10.275v61.809h-47.313v-99.006h26.126l11.39 15.452q6.372-8.841 17.643-14.018 11.27-5.177 21.067-5.177 18.001 0 28.555 9.558 10.554 9.558 10.554 25.647v67.544h-47.631v-47.79q0-24.294-14.019-24.294M36.985 495.622V368.419h18.24l61.49 57.747 63.163-57.747h17.603v127.203H145.15v-41.26l-32.497 35.684-31.622-34.728v40.304H36.985m244.528-68.819l.159-1.832q0-7.009-6.531-7.009-7.487.717-9.718 7.726-1.115 3.345-1.553 7.766-.438 4.421-1.314 9.439l17.443-3.903 1.514-12.187m-10.594 34.409h-4.381q-2.071 0-3.982-.159 0 9.479 10.116 10.355 2.787.239 5.416.239 6.77 0 17.005-3.107 10.235-3.106 18.36-10.115l4.938 24.771q-17.762 15.373-53.685 15.373-20.629 0-35.444-12.028-16.09-13.142-16.09-36.4 0-17.523 9.081-31.462 8.442-12.744 22.859-19.355 14.417-6.611 31.144-6.611 21.665 0 32.776 9.478 11.111 9.479 11.072 23.417-.04 13.939-13.342 24.772-13.302 10.832-35.843 10.832M83.102 223.216z" fill-rule="evenodd" fill="#F7FDFF"/></svg>