<svg xmlns="http://www.w3.org/2000/svg" style="isolation:isolate" viewBox="0 0 800 400" width="800" height="400"><path d="M0 0h800v400H0V0zm26.16 74.465h33.63l11.55 23.24 10.762-23.24h27.183l-36.414 73.987q-1.206 2.273-4.198 2.273-2.992 0-4.152-2.273L26.16 74.465m104.254-10.298q6.795 0 10.089 2.853 3.293 2.853 3.27 7.259-.023 4.407-4.221 8.118-4.198 3.711-11.202 3.711-9.834 0-12.246-5.938-.696-1.67-.696-3.711t.974-4.267q.974-2.227 2.922-3.989 4.314-4.036 11.11-4.036m12.547 26.719v57.658h-26.857V90.886h26.857m52.464-2.088v23.843q-4.268 0-8.767 3.108-4.5 3.108-4.546 5.891v26.904h-27.925V90.886h27.925v6.169q2.366-3.572 5.868-5.705 3.502-2.134 7.445-2.552m51.767 43.789v11.783q-8.813 5.984-18.67 5.984-9.857 0-16.027-5.59-6.169-5.59-6.169-15.053V105.59h-5.288V90.886h5.288V75.3l27.739-2.83v18.416h13.127v14.704h-13.127v14.566q0 6.54 2.945 9.486 2.946 2.945 10.182 2.945m35.904-41.701v26.858q0 15.214 7.375 15.214 3.711 0 4.314-3.618.186-1.113.186-2.458V90.886h27.553v57.658H307.31l-6.634-9.045q-5.891 8.025-17.024 10.437-13.637 2.922-21.987-4.639-6.309-5.705-6.309-15.075V90.886h27.74m93.144-.186v17.488q-10.298-2.412-14.983-2.412-1.345 0-2.064.603-.719.603-.719 1.345 0 1.531 3.827 3.085t7.028 3.038q3.2 1.485 5.52 3.618 5.009 4.639 5.009 13.8 0 9.162-6.633 14.079t-17.952 4.917q-11.318 0-18.09-2.088-2.969-.881-4.546-2.087v-17.21q.649.047 2.273.603 1.623.557 5.381 1.74 3.757 1.183 6.842 1.183 3.084 0 3.084-2.273 0-1.763-2.783-3.433-1.252-.742-2.83-1.53-6.54-3.201-9.346-7.399-2.807-4.198-2.807-9.857 0-10.066 8.164-15.03 6.865-4.174 17.952-4.174 7.746 0 15.539 1.53 1.67.325 2.134.464M57.285 310.805q-20.827 0-27.646-5.149v-21.245q.185.047 1.368.418t2.992.927q4.221 1.299 8.883 2.436 4.662 1.136 7.492 1.136 4.638 0 4.638-2.829 0-2.181-3.989-4.639-1.809-1.113-4.105-2.319-2.296-1.207-4.662-2.691-5.798-3.572-9.301-8.35-3.502-4.777-3.502-12.06 0-15.911 16.792-21.384 6.819-2.227 15.748-2.227 8.93 0 18.671 2.041 1.995.418 2.644.603v21.292q-12.617-2.691-18.137-2.691-2.134 0-3.201.742-1.067.743-1.067 1.67 0 .928.928 1.925.928.998 3.201 1.995 2.273.997 5.311 2.412t5.682 3.038q11.875 7.283 11.875 19.9 0 11.968-8.071 18.509-8.164 6.494-22.544 6.54m80.342-43.047q-.928-.464-2.389-.464-1.461 0-3.224.859-1.763.858-3.479 2.342-3.618 3.154-6.077 7.654-2.458 4.499-2.458 8.28 0 3.78 2.876 5.079 1.02.464 2.505.464 1.484 0 3.108-.904 1.623-.905 3.247-2.436 3.386-3.2 5.937-7.769 2.552-4.57 2.552-8.188 0-3.618-2.598-4.917m-8.999 42.954q-13.267 0-22.869-8.396-10.251-8.906-10.251-22.428 0-13.521 9.602-22.126t23.703-8.605q14.102 0 23.704 8.419 9.602 8.42 9.649 22.521.046 9.046-4.593 16.004-4.638 6.958-12.385 10.761-7.747 3.804-16.56 3.85m69.07-79.785v78.069h-26.302v-78.069h26.302m38.594 20.41v26.858q0 15.215 7.375 15.215 3.711 0 4.314-3.618.186-1.113.186-2.459v-35.996h27.553v57.659h-15.215l-6.633-9.045q-5.891 8.025-17.024 10.437-13.638 2.922-21.987-4.639-6.309-5.706-6.309-15.076v-39.336h27.74m94.118 41.702v11.782q-8.813 5.984-18.67 5.984-9.858 0-16.027-5.589-6.17-5.59-6.17-15.053v-24.121h-5.288v-14.705h5.288v-15.586l27.74-2.829v18.415h13.127v14.705h-13.127v14.565q0 6.541 2.945 9.487 2.946 2.945 10.182 2.945m22.846-68.42q6.795 0 10.089 2.852 3.293 2.853 3.27 7.26-.023 4.407-4.221 8.118-4.198 3.711-11.203 3.711-9.834 0-12.246-5.938-.695-1.67-.695-3.711t.974-4.267q.974-2.227 2.922-3.99 4.314-4.035 11.11-4.035m12.547 26.718v57.659h-26.858v-57.659h26.858m51.165 16.421q-.928-.464-2.389-.464-1.461 0-3.224.859-1.763.858-3.479 2.342-3.618 3.154-6.077 7.654-2.458 4.499-2.458 8.28 0 3.78 2.876 5.079 1.02.464 2.505.464 1.484 0 3.108-.904 1.623-.905 3.247-2.436 3.386-3.2 5.937-7.769 2.551-4.57 2.551-8.188 0-3.618-2.597-4.917m-8.999 42.954q-13.267 0-22.869-8.396-10.251-8.906-10.251-22.428 0-13.521 9.602-22.126t23.703-8.605q14.102 0 23.704 8.419 9.602 8.42 9.648 22.521.047 9.046-4.592 16.004-4.639 6.958-12.385 10.761-7.747 3.804-16.56 3.85m73.94-43.696q-3.711 0-3.711 5.984v35.996h-27.553v-57.659h15.214l6.634 8.999q3.711-5.148 10.274-8.164 6.564-3.015 12.27-3.015 10.483 0 16.629 5.567 6.147 5.566 6.147 14.936v39.336h-27.74v-27.832q0-14.148-8.164-14.148m89.341-15.864v17.488q-10.298-2.412-14.983-2.412-1.345 0-2.064.603-.719.603-.719 1.345 0 1.531 3.827 3.084 3.827 1.554 7.027 3.039 3.201 1.484 5.52 3.618 5.01 4.639 5.01 13.8 0 9.161-6.633 14.078t-17.952 4.917q-11.318 0-18.091-2.087-2.968-.881-4.546-2.087v-17.21q.65.047 2.273.603 1.624.557 5.381 1.74 3.758 1.183 6.842 1.183 3.085 0 3.085-2.273 0-1.763-2.783-3.433-1.253-.742-2.83-1.531-6.54-3.2-9.347-7.398-2.806-4.198-2.806-9.858 0-10.066 8.164-15.029 6.865-4.175 17.952-4.175 7.746 0 15.539 1.531 1.67.325 2.134.464M26.16 74.465z" fill-rule="evenodd" fill="#FFF"/></svg>