<?xml version="1.0" standalone="no"?><!-- Generator: Gravit.io --><svg xmlns="http://www.w3.org/2000/svg" xmlns:xlink="http://www.w3.org/1999/xlink" style="isolation:isolate" viewBox="0 0 599.213 600" width="599.213" height="600"><path d=" M 0 0 L 599.213 0 L 599.213 600 L 0 600 L 0 0 Z  M 83.102 223.216 Q 72.589 223.216 62.154 220.428 Q 51.72 217.64 44.233 211.746 Q 28.303 199.32 28.303 174.947 L 28.303 162.84 L 72.509 156.787 L 72.509 169.053 Q 72.509 180.124 79.12 183.31 Q 83.102 185.302 87.244 183.151 Q 89.315 182.036 90.908 179.965 Q 94.413 175.505 94.413 168.575 L 94.413 92.907 L 145.15 92.907 L 145.15 154.397 Q 145.15 202.427 115.68 216.923 Q 103.095 223.136 83.102 223.216 M 231.173 149.3 Q 229.58 148.503 227.071 148.503 Q 224.562 148.503 221.536 149.977 Q 218.509 151.45 215.562 153.999 Q 209.349 159.415 205.128 167.141 Q 200.906 174.867 200.906 181.359 Q 200.906 187.851 205.844 190.081 Q 207.597 190.877 210.146 190.877 Q 212.694 190.877 215.482 189.324 Q 218.27 187.771 221.058 185.142 Q 226.872 179.647 231.253 171.801 Q 235.634 163.955 235.634 157.743 Q 235.634 151.53 231.173 149.3 M 215.721 223.056 Q 192.941 223.056 176.453 208.639 Q 158.85 193.346 158.85 170.128 Q 158.85 146.91 175.338 132.135 Q 191.826 117.36 216.04 117.36 Q 240.254 117.36 256.741 131.816 Q 273.229 146.273 273.309 170.487 Q 273.388 186.019 265.423 197.966 Q 257.458 209.914 244.156 216.445 Q 230.855 222.977 215.721 223.056 M 313.572 75.224 Q 325.241 75.224 330.896 80.123 Q 336.552 85.021 336.512 92.588 Q 336.472 100.155 329.263 106.527 Q 322.055 112.899 310.028 112.899 Q 293.142 112.899 289 102.704 Q 287.805 99.836 287.805 96.332 Q 287.805 92.827 289.478 89.004 Q 291.151 85.181 294.496 82.154 Q 301.903 75.224 313.572 75.224 M 335.118 121.103 L 335.118 220.109 L 289 220.109 L 289 121.103 L 335.118 121.103 M 408.078 148.025 Q 401.706 148.025 401.706 158.3 L 401.706 220.109 L 354.393 220.109 L 354.393 121.103 L 380.519 121.103 L 391.909 136.555 Q 398.281 127.714 409.552 122.537 Q 420.822 117.36 430.619 117.36 Q 448.62 117.36 459.174 126.918 Q 469.728 136.476 469.728 152.565 L 469.728 220.109 L 422.097 220.109 L 422.097 172.319 Q 422.097 148.025 408.078 148.025 M 36.985 495.622 L 36.985 368.419 L 55.225 368.419 L 116.715 426.166 L 179.878 368.419 L 197.481 368.419 L 197.481 495.622 L 145.15 495.622 L 145.15 454.362 L 112.653 490.046 L 81.031 455.318 L 81.031 495.622 L 36.985 495.622 M 281.513 426.803 L 281.672 424.971 Q 281.672 417.962 275.141 417.962 Q 267.654 418.679 265.423 425.688 Q 264.308 429.033 263.87 433.454 Q 263.432 437.875 262.556 442.893 L 279.999 438.99 L 281.513 426.803 M 270.919 461.212 Q 270.919 461.212 266.538 461.212 Q 264.467 461.212 262.556 461.053 Q 262.556 470.532 272.672 471.408 Q 275.459 471.647 278.088 471.647 Q 284.858 471.647 295.093 468.54 Q 305.328 465.434 313.453 458.425 L 318.391 483.196 Q 300.629 498.569 264.706 498.569 Q 244.077 498.569 229.262 486.541 Q 213.172 473.399 213.172 450.141 Q 213.172 432.618 222.253 418.679 Q 230.695 405.935 245.112 399.324 Q 259.529 392.713 276.256 392.713 Q 297.921 392.713 309.032 402.191 Q 320.143 411.67 320.104 425.608 Q 320.064 439.547 306.762 450.38 Q 293.46 461.212 270.919 461.212 M 83.102 223.216 Z " fill-rule="evenodd" fill="rgb(247,253,255)"/></svg>