<?xml version="1.0" standalone="no"?><!-- Generator: Gravit.io --><svg xmlns="http://www.w3.org/2000/svg" xmlns:xlink="http://www.w3.org/1999/xlink" style="isolation:isolate" viewBox="0 0 800 400" width="800" height="400"><path d=" M 0 0 L 800 0 L 800 400 L 0 400 L 0 0 Z  M 26.16 74.465 L 59.79 74.465 L 71.34 97.705 L 82.102 74.465 L 109.285 74.465 L 72.871 148.452 Q 71.665 150.725 68.673 150.725 Q 65.681 150.725 64.521 148.452 L 26.16 74.465 M 130.414 64.167 Q 137.209 64.167 140.503 67.02 Q 143.796 69.873 143.773 74.279 Q 143.75 78.686 139.552 82.397 Q 135.354 86.108 128.35 86.108 Q 118.516 86.108 116.104 80.17 Q 115.408 78.5 115.408 76.459 Q 115.408 74.418 116.382 72.192 Q 117.356 69.965 119.304 68.203 Q 123.618 64.167 130.414 64.167 M 142.961 90.886 L 142.961 148.544 L 116.104 148.544 L 116.104 90.886 L 142.961 90.886 M 195.425 88.798 L 195.425 112.641 Q 191.157 112.641 186.658 115.749 Q 182.158 118.857 182.112 121.64 L 182.112 148.544 L 154.187 148.544 L 154.187 90.886 L 182.112 90.886 L 182.112 97.055 Q 184.478 93.483 187.98 91.35 Q 191.482 89.216 195.425 88.798 M 247.192 132.587 L 247.192 144.37 Q 238.379 150.354 228.522 150.354 Q 218.665 150.354 212.495 144.764 Q 206.326 139.174 206.326 129.711 L 206.326 105.59 L 201.038 105.59 L 201.038 90.886 L 206.326 90.886 L 206.326 75.3 L 234.065 72.47 L 234.065 90.886 L 247.192 90.886 L 247.192 105.59 L 234.065 105.59 L 234.065 120.156 Q 234.065 126.696 237.01 129.642 Q 239.956 132.587 247.192 132.587 M 283.096 90.886 L 283.096 117.744 Q 283.096 132.958 290.471 132.958 Q 294.182 132.958 294.785 129.34 Q 294.971 128.227 294.971 126.882 L 294.971 90.886 L 322.524 90.886 L 322.524 148.544 L 307.31 148.544 L 300.676 139.499 Q 294.785 147.524 283.652 149.936 Q 270.015 152.858 261.665 145.297 Q 255.356 139.592 255.356 130.222 L 255.356 90.886 L 283.096 90.886 M 376.24 90.7 L 376.24 108.188 Q 365.942 105.776 361.257 105.776 Q 359.912 105.776 359.193 106.379 Q 358.474 106.982 358.474 107.724 Q 358.474 109.255 362.301 110.809 Q 366.128 112.363 369.329 113.847 Q 372.529 115.332 374.849 117.465 Q 379.858 122.104 379.858 131.265 Q 379.858 140.427 373.225 145.344 Q 366.592 150.261 355.273 150.261 Q 343.955 150.261 337.183 148.173 Q 334.214 147.292 332.637 146.086 L 332.637 128.876 Q 333.286 128.923 334.91 129.479 Q 336.533 130.036 340.291 131.219 Q 344.048 132.402 347.133 132.402 Q 350.217 132.402 350.217 130.129 Q 350.217 128.366 347.434 126.696 Q 346.182 125.954 344.604 125.166 Q 338.064 121.965 335.258 117.767 Q 332.451 113.569 332.451 107.91 Q 332.451 97.844 340.615 92.88 Q 347.48 88.706 358.567 88.706 Q 366.313 88.706 374.106 90.236 Q 375.776 90.561 376.24 90.7 M 57.285 310.805 Q 36.458 310.805 29.639 305.656 L 29.639 284.411 Q 29.824 284.458 31.007 284.829 Q 32.19 285.2 33.999 285.756 Q 38.22 287.055 42.882 288.192 Q 47.544 289.328 50.374 289.328 Q 55.012 289.328 55.012 286.499 Q 55.012 284.318 51.023 281.86 Q 49.214 280.747 46.918 279.541 Q 44.622 278.334 42.256 276.85 Q 36.458 273.278 32.955 268.5 Q 29.453 263.723 29.453 256.44 Q 29.453 240.529 46.245 235.056 Q 53.064 232.829 61.993 232.829 Q 70.923 232.829 80.664 234.87 Q 82.659 235.288 83.308 235.473 L 83.308 256.765 Q 70.691 254.074 65.171 254.074 Q 63.037 254.074 61.97 254.816 Q 60.903 255.559 60.903 256.486 Q 60.903 257.414 61.831 258.411 Q 62.759 259.409 65.032 260.406 Q 67.305 261.403 70.343 262.818 Q 73.381 264.233 76.025 265.856 Q 87.9 273.139 87.9 285.756 Q 87.9 297.724 79.829 304.265 Q 71.665 310.759 57.285 310.805 M 137.627 267.758 Q 136.699 267.294 135.238 267.294 Q 133.777 267.294 132.014 268.153 Q 130.251 269.011 128.535 270.495 Q 124.917 273.649 122.458 278.149 Q 120 282.648 120 286.429 Q 120 290.209 122.876 291.508 Q 123.896 291.972 125.381 291.972 Q 126.865 291.972 128.489 291.068 Q 130.112 290.163 131.736 288.632 Q 135.122 285.432 137.673 280.863 Q 140.225 276.293 140.225 272.675 Q 140.225 269.057 137.627 267.758 M 128.628 310.712 Q 115.361 310.712 105.759 302.316 Q 95.508 293.41 95.508 279.888 Q 95.508 266.367 105.11 257.762 Q 114.712 249.157 128.813 249.157 Q 142.915 249.157 152.517 257.576 Q 162.119 265.996 162.166 280.097 Q 162.212 289.143 157.573 296.101 Q 152.935 303.059 145.188 306.862 Q 137.441 310.666 128.628 310.712 M 197.698 230.927 L 197.698 308.996 L 171.396 308.996 L 171.396 230.927 L 197.698 230.927 M 236.292 251.337 L 236.292 278.195 Q 236.292 293.41 243.667 293.41 Q 247.378 293.41 247.981 289.792 Q 248.167 288.679 248.167 287.333 L 248.167 251.337 L 275.72 251.337 L 275.72 308.996 L 260.505 308.996 L 253.872 299.951 Q 247.981 307.976 236.848 310.388 Q 223.21 313.31 214.861 305.749 Q 208.552 300.043 208.552 290.673 L 208.552 251.337 L 236.292 251.337 M 330.41 293.039 L 330.41 304.821 Q 321.597 310.805 311.74 310.805 Q 301.882 310.805 295.713 305.216 Q 289.543 299.626 289.543 290.163 L 289.543 266.042 L 284.255 266.042 L 284.255 251.337 L 289.543 251.337 L 289.543 235.751 L 317.283 232.922 L 317.283 251.337 L 330.41 251.337 L 330.41 266.042 L 317.283 266.042 L 317.283 280.607 Q 317.283 287.148 320.228 290.094 Q 323.174 293.039 330.41 293.039 M 353.256 224.619 Q 360.051 224.619 363.345 227.471 Q 366.638 230.324 366.615 234.731 Q 366.592 239.138 362.394 242.849 Q 358.196 246.56 351.191 246.56 Q 341.357 246.56 338.945 240.622 Q 338.25 238.952 338.25 236.911 Q 338.25 234.87 339.224 232.644 Q 340.198 230.417 342.146 228.654 Q 346.46 224.619 353.256 224.619 M 365.803 251.337 L 365.803 308.996 L 338.945 308.996 L 338.945 251.337 L 365.803 251.337 M 416.968 267.758 Q 416.04 267.294 414.579 267.294 Q 413.118 267.294 411.355 268.153 Q 409.592 269.011 407.876 270.495 Q 404.258 273.649 401.799 278.149 Q 399.341 282.648 399.341 286.429 Q 399.341 290.209 402.217 291.508 Q 403.237 291.972 404.722 291.972 Q 406.206 291.972 407.83 291.068 Q 409.453 290.163 411.077 288.632 Q 414.463 285.432 417.014 280.863 Q 419.565 276.293 419.565 272.675 Q 419.565 269.057 416.968 267.758 M 407.969 310.712 Q 394.702 310.712 385.1 302.316 Q 374.849 293.41 374.849 279.888 Q 374.849 266.367 384.451 257.762 Q 394.053 249.157 408.154 249.157 Q 422.256 249.157 431.858 257.576 Q 441.46 265.996 441.506 280.097 Q 441.553 289.143 436.914 296.101 Q 432.275 303.059 424.529 306.862 Q 416.782 310.666 407.969 310.712 M 481.909 267.016 Q 478.198 267.016 478.198 273 L 478.198 308.996 L 450.645 308.996 L 450.645 251.337 L 465.859 251.337 L 472.493 260.336 Q 476.204 255.188 482.767 252.172 Q 489.331 249.157 495.037 249.157 Q 505.52 249.157 511.666 254.724 Q 517.813 260.29 517.813 269.66 L 517.813 308.996 L 490.073 308.996 L 490.073 281.164 Q 490.073 267.016 481.909 267.016 M 571.25 251.152 L 571.25 268.64 Q 560.952 266.228 556.267 266.228 Q 554.922 266.228 554.203 266.831 Q 553.484 267.434 553.484 268.176 Q 553.484 269.707 557.311 271.26 Q 561.138 272.814 564.338 274.299 Q 567.539 275.783 569.858 277.917 Q 574.868 282.556 574.868 291.717 Q 574.868 300.878 568.235 305.795 Q 561.602 310.712 550.283 310.712 Q 538.965 310.712 532.192 308.625 Q 529.224 307.744 527.646 306.538 L 527.646 289.328 Q 528.296 289.375 529.919 289.931 Q 531.543 290.488 535.3 291.671 Q 539.058 292.854 542.142 292.854 Q 545.227 292.854 545.227 290.581 Q 545.227 288.818 542.444 287.148 Q 541.191 286.406 539.614 285.617 Q 533.074 282.417 530.267 278.219 Q 527.461 274.021 527.461 268.361 Q 527.461 258.295 535.625 253.332 Q 542.49 249.157 553.577 249.157 Q 561.323 249.157 569.116 250.688 Q 570.786 251.013 571.25 251.152 M 26.16 74.465 Z " fill-rule="evenodd" fill="rgb(247,253,255)"/></svg>